<svg width="14" height="14" viewBox="0 0 14 14" fill="none" xmlns="http://www.w3.org/2000/svg">
<path d="M11.28 5.82299C11.5221 8.52599 9.50607 10.912 6.76057 11.139C4.01517 11.366 1.60457 9.34499 1.36247 6.64199C1.12047 3.93899 3.13637 1.55299 5.88187 1.32599C8.62737 1.09899 11.038 3.11999 11.28 5.82299Z" stroke="#D2D2D2" stroke-width="1.7"/>
<path d="M9.04234 10.0703L9.04233 10.0703C8.74335 10.3872 8.76009 10.884 9.07972 11.1801L11.546 13.4644C11.8656 13.7604 12.3671 13.7436 12.6661 13.4267C12.965 13.1098 12.9483 12.6129 12.6287 12.3168L10.1624 10.0325C9.8428 9.73649 9.34132 9.75338 9.04234 10.0703Z" fill="#D2D2D2"/>
</svg>
