<svg width="20" height="20" viewBox="0 0 20 20" fill="none" xmlns="http://www.w3.org/2000/svg">
<path fill-rule="evenodd" clip-rule="evenodd" d="M8.03007 2.24436C8.01043 2.16616 8 2.0843 8 2V1C8 0.447715 8.44771 0 9 0H11C11.5523 0 12 0.447715 12 1V2C12 2.0843 11.9896 2.16616 11.9699 2.24436C12.7255 2.43568 13.4382 2.73451 14.0909 3.12362C14.1323 3.0542 14.183 2.98873 14.2428 2.92894L14.9499 2.22183C15.3404 1.83131 15.9735 1.83131 16.3641 2.22183L17.7783 3.63605C18.1688 4.02657 18.1688 4.65974 17.7783 5.05026L17.0712 5.75737C17.0114 5.81716 16.9459 5.8678 16.8765 5.90928C17.2655 6.56189 17.5643 7.27457 17.7556 8.03007C17.8338 8.01043 17.9157 8 18 8H19C19.5523 8 20 8.44771 20 9V11C20 11.5523 19.5523 12 19 12H18C17.9157 12 17.8338 11.9896 17.7556 11.9699C17.5643 12.7255 17.2655 13.4382 16.8764 14.0908C16.9458 14.1323 17.0112 14.1829 17.071 14.2427L17.7781 14.9498C18.1686 15.3403 18.1686 15.9734 17.7781 16.364L16.3638 17.7782C15.9733 18.1687 15.3402 18.1687 14.9496 17.7782L14.2425 17.0711C14.1828 17.0113 14.1322 16.9459 14.0907 16.8765C13.4381 17.2655 12.7254 17.5643 11.9699 17.7556C11.9896 17.8338 12 17.9157 12 18V19C12 19.5523 11.5523 20 11 20H9C8.44771 20 8 19.5523 8 19V18C8 17.9157 8.01043 17.8338 8.03007 17.7556C7.27453 17.5643 6.56182 17.2655 5.90918 16.8764C5.8677 16.9458 5.81707 17.0113 5.75729 17.0711L5.05018 17.7782C4.65966 18.1687 4.02649 18.1687 3.63597 17.7782L2.22176 16.364C1.83123 15.9734 1.83123 15.3403 2.22176 14.9498L2.92886 14.2426C2.98865 14.1829 3.05413 14.1322 3.12355 14.0907C2.73448 13.4381 2.43567 12.7254 2.24436 11.9699C2.16615 11.9896 2.0843 12 2 12H1C0.447715 12 0 11.5523 0 11V9C0 8.44771 0.447715 8 1 8H2C2.0843 8 2.16615 8.01043 2.24436 8.03007C2.43567 7.27456 2.73447 6.56188 3.12355 5.90926C3.05413 5.86778 2.98866 5.81715 2.92888 5.75737L2.22177 5.05026C1.83125 4.65974 1.83125 4.02658 2.22177 3.63605L3.63599 2.22184C4.02651 1.83131 4.65968 1.83131 5.0502 2.22184L5.75731 2.92894C5.81708 2.98872 5.86771 3.05419 5.90919 3.12359C6.56182 2.7345 7.27453 2.43568 8.03007 2.24436ZM14 10C14 12.2091 12.2091 14 10 14C7.79086 14 6 12.2091 6 10C6 7.79086 7.79086 6 10 6C12.2091 6 14 7.79086 14 10ZM10 12C11.1046 12 12 11.1046 12 10C12 8.89543 11.1046 8 10 8C8.89543 8 8 8.89543 8 10C8 11.1046 8.89543 12 10 12Z" fill="#D1D1D1"/>
</svg>
