<svg width="20" height="20" viewBox="0 0 20 20" fill="none" xmlns="http://www.w3.org/2000/svg">
<path fill-rule="evenodd" clip-rule="evenodd" d="M9 16C8.44771 16 8 15.5523 8 15L8 1C8 0.447715 8.44771 0 9 0H11C11.5523 0 12 0.447715 12 1L12 15C12 15.5523 11.5523 16 11 16H9ZM15 15C15 15.5523 15.4477 16 16 16H18C18.5523 16 19 15.5523 19 15V4C19 3.44772 18.5523 3 18 3H16C15.4477 3 15 3.44772 15 4L15 15ZM0.999999 15C0.999999 15.5523 1.44772 16 2 16H4C4.55229 16 5 15.5523 5 15L5 6C5 5.44771 4.55228 5 4 5H2C1.44771 5 0.999999 5.44771 0.999999 6V15ZM1 18C0.447715 18 0 18.4477 0 19C0 19.5523 0.447715 20 1 20H19C19.5523 20 20 19.5523 20 19C20 18.4477 19.5523 18 19 18H1Z" fill="#D1D1D1"/>
</svg>
