<svg width="18" height="20" viewBox="0 0 18 20" fill="none" xmlns="http://www.w3.org/2000/svg">
<path fill-rule="evenodd" clip-rule="evenodd" d="M3 0C1.34315 0 0 1.34315 0 3V17C0 18.6569 1.34315 20 3 20H15C16.6569 20 18 18.6569 18 17V3C18 1.34315 16.6569 0 15 0H3ZM9 3C8.44772 3 8 3.44772 8 4C8 4.55228 8.44771 5 9 5H14C14.5523 5 15 4.55228 15 4C15 3.44772 14.5523 3 14 3H9ZM3 8C3 7.44772 3.44772 7 4 7H14C14.5523 7 15 7.44772 15 8C15 8.55229 14.5523 9 14 9H4C3.44772 9 3 8.55229 3 8ZM4 11C3.44772 11 3 11.4477 3 12C3 12.5523 3.44772 13 4 13H14C14.5523 13 15 12.5523 15 12C15 11.4477 14.5523 11 14 11H4ZM3 16C3 15.4477 3.44772 15 4 15H8C8.55228 15 9 15.4477 9 16C9 16.5523 8.55228 17 8 17H4C3.44772 17 3 16.5523 3 16ZM13 15C12.4477 15 12 15.4477 12 16C12 16.5523 12.4477 17 13 17H14C14.5523 17 15 16.5523 15 16C15 15.4477 14.5523 15 14 15H13Z" fill="#D1D1D1"/>
</svg>
