<svg width="20" height="20" viewBox="0 0 20 20" fill="none" xmlns="http://www.w3.org/2000/svg">
<path fill-rule="evenodd" clip-rule="evenodd" d="M10 20C15.5228 20 20 15.5228 20 10C20 4.47715 15.5228 0 10 0C4.47715 0 0 4.47715 0 10C0 15.5228 4.47715 20 10 20ZM8.83318 11.9101C8.90518 11.9701 8.98919 12.0001 9.08519 12.0001H11.3769C11.5089 12.0001 11.6109 11.9641 11.6829 11.8921C11.7549 11.8201 11.8389 11.7001 11.9349 11.5321L12.4749 10.8668C12.6669 10.6268 12.9249 10.3328 13.2489 9.98479C13.7769 9.40879 14.1729 8.89879 14.4369 8.45479C14.7129 8.01079 14.8509 7.49479 14.8509 6.90679C14.8509 6.39079 14.7009 5.88679 14.4009 5.39479C14.1129 4.89079 13.6269 4.47079 12.9429 4.13479C12.2589 3.78679 11.3709 3.61279 10.2789 3.61279C9.21093 3.61279 8.29293 3.79879 7.52493 4.17079C6.75693 4.54279 6.17493 5.02879 5.77893 5.62879C5.38293 6.21679 5.17293 6.84079 5.14893 7.50079C5.14893 7.64479 5.18493 7.76479 5.25693 7.86079C5.34093 7.94479 5.44893 7.98679 5.58093 7.98679H7.77693C8.05293 7.98679 8.23893 7.84279 8.33493 7.55479C8.55093 6.65479 9.12693 6.20479 10.0629 6.20479C10.4589 6.20479 10.7949 6.31879 11.0709 6.54679C11.3589 6.76279 11.4849 7.05679 11.4489 7.42879C11.4369 7.68079 11.3349 7.93279 11.1429 8.18479C10.9509 8.42479 10.6629 8.73679 10.2789 9.12079C9.76293 9.62479 9.35493 10.0748 9.05493 10.4708C8.98866 10.5891 8.94005 10.6608 8.90222 10.7166C8.81348 10.8474 8.78408 10.8908 8.72518 11.2441V11.6581C8.72518 11.7541 8.76118 11.8381 8.83318 11.9101ZM11.7862 14.7179C11.7862 15.6398 11.0388 16.3872 10.1168 16.3872C9.19489 16.3872 8.44751 15.6398 8.44751 14.7179C8.44751 13.7959 9.19489 13.0485 10.1168 13.0485C11.0388 13.0485 11.7862 13.7959 11.7862 14.7179Z" fill="#D1D1D1"/>
</svg>
